<svg id="Layer_1" data-name="Layer 1" xmlns="http://www.w3.org/2000/svg" viewBox="0 0 166.82 178.33"><defs><style>.cls-1{fill:#fff;}</style></defs><title>favicon</title><path class="cls-1" d="M56.65,178.33H0V1H15.75V164.39h40.9Z"/><path class="cls-1" d="M166.82,165.68a12.12,12.12,0,0,1-3.65,9.11,12.71,12.71,0,0,1-9.23,3.54H107a12.11,12.11,0,0,1-9.06-3.54,12.42,12.42,0,0,1-3.48-9.11V107.57q0-7.63,5.81-11.4L117.59,85,100.73,74.52Q94.93,70.88,94.92,63V12.65a12.38,12.38,0,0,1,3.53-9.12A12.36,12.36,0,0,1,107.57,0h46.15a12.34,12.34,0,0,1,9.11,3.53,12.38,12.38,0,0,1,3.53,9.12V63q0,7.86-5.92,11.51L143.69,85l17,11.17a12.8,12.8,0,0,1,6.15,11.4Zm-15.95-1.37v-59L130.58,92,110.3,105.29v59Zm-.46-99.13V14H110.76V65.18L130.58,78.4Z"/></svg>